<?xml version="1.0" encoding="utf-8"?>
<!-- Designed by Vexels.com - 2021 All Rights Reserved - https://vexels.com/terms-and-conditions/  -->
<svg version="1.1" id="Capa_1" xmlns="http://www.w3.org/2000/svg" xmlns:xlink="http://www.w3.org/1999/xlink" x="0px" y="0px"
	 viewBox="0 0 1200 1200" enable-background="new 0 0 1200 1200" xml:space="preserve">
<g>
	<g>
		<path fill="#4A5B7B" d="M365.931,576.778c1.173,2.036,2.588,3.932,4.341,5.555C368.518,580.71,367.103,578.814,365.931,576.778z"
			/>
	</g>
	<path fill="#FFFFFF" d="M376.049,677.603c8.927,54.099,39.135,103.161,84.574,135.233l141.822,100.106l140.532-101.907
		c53.144-38.535,84.831-100.447,85.198-166.006c0.005-0.82,0.064-1.633,0.058-2.454l-0.419-65.797h-88.537l-0.988,0.177
		l-0.967,0.173c0.187,0.511,0.353,0.964,0.485,1.328c0.289,0.789,0.436,1.617,0.441,2.457l0.095,14.933
		c0.026,4.074-3.272,7.385-7.346,7.367c-0.137-0.001-0.317-0.003-0.458-0.004c-0.94-0.004-1.961-0.014-3.044-0.028
		c-0.454-0.006-0.898-0.011-1.376-0.019c-1.278-0.019-2.621-0.044-4.057-0.079c-0.44-0.01-0.902-0.025-1.356-0.038
		c-1.206-0.033-2.457-0.072-3.756-0.117c-0.524-0.018-1.025-0.034-1.563-0.055c-1.652-0.063-3.374-0.14-5.147-0.227
		c-0.561-0.028-1.126-0.058-1.698-0.089c-1.719-0.09-3.475-0.192-5.283-0.309c-0.268-0.017-0.523-0.031-0.793-0.049
		c-0.006-0.001-0.011-0.001-0.017-0.001c-13.905-0.926-30.128-2.676-45.451-5.906l-25.411,7.309l-143.671,41.325
		c-3.14,0.903-6.384-1.057-7.045-4.257c-2.104-10.182,3.332-20.42,12.945-24.381l95.888-39.51H376.782l-0.951,4.583
		c-0.312,1.505-1.648,2.313-3,2.276l0.394,61.84C373.294,656.325,374.307,667.05,376.049,677.603z"/>
	<g>
		<path fill="none" d="M501.643,676.801l-125.594,0.801c8.927,54.099,39.135,103.161,84.574,135.233l141.822,100.106
			l140.532-101.907c53.144-38.535,84.831-100.447,85.198-166.006l-89.887-68.075l-0.967,0.173c0.187,0.511,0.353,0.964,0.485,1.328
			c0.289,0.789,0.436,1.617,0.441,2.457l0.095,14.933c0.026,4.074-3.272,7.385-7.346,7.367c-0.137-0.001-0.317-0.003-0.458-0.004
			c-0.94-0.004-1.961-0.014-3.044-0.028c-0.454-0.006-0.898-0.011-1.376-0.019c-1.278-0.019-2.621-0.045-4.057-0.079
			c-0.44-0.01-0.902-0.025-1.356-0.038c-1.206-0.033-2.457-0.072-3.756-0.117c-0.524-0.018-1.025-0.034-1.563-0.055
			c-1.653-0.063-3.374-0.14-5.147-0.227c-0.561-0.028-1.126-0.058-1.698-0.089c-1.719-0.09-3.475-0.192-5.283-0.309
			c-0.268-0.017-0.523-0.031-0.793-0.049c-0.006-0.001-0.011-0.001-0.017-0.001c-13.905-0.926-30.128-2.676-45.451-5.906
			l-25.411,7.309C631.945,643.422,601.659,676.164,501.643,676.801z"/>
		<path fill="#D8DBE1" d="M800.898,277.113l-405,2.582c-13.788,0.088-24.934,11.376-24.846,25.164l1.425,223.44l6.36-1.977
			c2.135-3.516,6.27-8.719,13.064-11.179c5.921-2.144,12.139-1.026,17.563,1.659l45.368-14.103
			c-31.161-17.797-52.312-51.171-52.557-89.638c-0.366-57.445,45.905-104.309,103.349-104.675
			c57.444-0.367,104.309,45.904,104.674,103.348c0.064,10.025-1.372,19.696-3.96,28.886c12.835,8.802,25.009,17.408,34.156,23.947
			l20.338-2.332l21.823-126.152c1.78-10.288,10.101-17.833,20.05-19.095c0.001-0.015,0.002-0.031,0.003-0.047
			c0.137-0.017,0.279-0.015,0.417-0.031c0.38-0.04,0.76-0.06,1.144-0.082c0.323-0.021,0.641-0.063,0.967-0.07
			c-0.156,0.006-0.314,0.01-0.471,0.017c0.157-0.006,0.314-0.012,0.471-0.017h-0.001c0.001,0,0.001,0,0.001,0
			c0.074-0.002,0.146-0.008,0.22-0.008c0.013-0.001,0.024-0.001,0.036-0.001h0.001c-0.013,0-0.025,0.001-0.038,0.001
			c0.885-0.013,1.778,0.022,2.679,0.12c2.12,0.229,3.846,1.643,4.556,3.536c0.237,0.631,0.362,1.315,0.349,2.026l-2.318,132.318
			c12.538-7.998,26.23-3.898,31.359-1.833l84.878-9.733l-0.9-141.227C825.975,288.17,814.686,277.025,800.898,277.113z"/>
		<path fill="#D8DBE1" d="M828.234,642.575l-0.52-81.608l-8.578,1.534l-80.847,14.454l89.887,68.075
			C828.181,644.209,828.24,643.396,828.234,642.575z"/>
		<path fill="#D8DBE1" d="M376.049,677.603l125.594-0.801c100.016-0.638,130.302-33.379,129.945-73.201l-143.671,41.325
			c-3.14,0.903-6.384-1.057-7.045-4.257c-2.104-10.182,3.332-20.42,12.945-24.381l98.24-40.479
			c-14.467-2.107-29.276-13.959-40.441-25.272c-1.313-0.015-2.617-0.03-4.007-0.037c-0.546-0.003-1.126-0.001-1.684-0.003
			c-1.474-0.003-2.993-0.003-4.553,0.003c-0.736,0.003-1.468,0.005-2.224,0.01c-2.016,0.013-4.088,0.033-6.243,0.063
			c-0.701,0.01-1.438,0.024-2.153,0.036c-15.863,0.26-35.356,0.992-59.179,2.523c-5.583,0.358-12.097,1.043-19.368,1.998
			c0.071,1.901-0.002,3.803-0.39,5.672l-1.095,5.272c-0.468,2.256-3.221,3.137-4.912,1.571l-0.647-0.598
			c-2.964-2.744-5.079-6.207-6.319-9.987c-4.457,0.693-9.105,1.456-13.961,2.295c-2.24,5.26-6.207,9.514-12.418,11.397
			c-9.409,2.854-16.43-0.783-21.095-5.121c-1.831,0.365-3.685,0.738-5.546,1.115c-2.842,0.575-5.729,1.167-8.636,1.769
			c0.3,2.525,0.258,5.08-0.26,7.575l-1.095,5.272c-0.312,1.505-1.648,2.313-3,2.276l0.394,61.84
			C373.294,656.325,374.308,667.05,376.049,677.603z"/>
		<path fill="#D8DBE1" d="M819.294,479.238c-0.654,0.161-1.306,0.323-1.959,0.485c-2.46,0.609-4.908,1.222-7.344,1.839
			c-0.725,0.184-1.451,0.367-2.174,0.552c-2.456,0.626-4.897,1.257-7.326,1.89c-0.62,0.161-1.242,0.322-1.86,0.484
			c-2.898,0.761-5.778,1.526-8.635,2.297c-0.099,0.026-0.2,0.053-0.299,0.08c-0.589,0.159-1.164,0.321-1.752,0.481
			c0.639,1.104,1.221,2.242,1.675,3.439l1.907,5.035c0.817,2.156-1.032,4.377-3.3,3.964l-0.866-0.157
			c-5.483-0.997-10.376-3.951-13.912-8.232c-0.488,0.14-0.986,0.278-1.472,0.418c-0.714,0.206-1.418,0.413-2.128,0.62
			c-1.467,0.426-2.917,0.855-4.368,1.285c-0.397,3.654-2.214,11.026-10.384,12.639c-10.962,2.165-19.616-2.362-19.616-2.362
			s-0.289-0.193-0.769-0.519c-1.849,0.632-3.698,1.263-5.507,1.9c-0.559,0.197-1.103,0.396-1.659,0.593
			c-0.009,0.003-0.017,0.007-0.026,0.01c0.233,0.506,0.532,0.977,0.73,1.499l1.908,5.035c0.817,2.155-1.033,4.376-3.3,3.964
			l-0.866-0.158c-4.266-0.776-8.192-2.723-11.396-5.558c-0.741,0.286-1.477,0.572-2.21,0.859c-0.904,0.354-1.785,0.711-2.676,1.066
			l-0.164,9.398c5.003,4.937,8.74,9.106,10.112,11.698c0.574,1.083,1.205,2.382,1.862,3.781l27.134-1.32l78.876-3.838l-0.351-55.088
			C824.541,477.955,821.91,478.594,819.294,479.238z"/>
		<path fill="#8791A4" d="M857.102,470.388c-2.384,0.531-4.761,1.068-7.134,1.606c0.346,0.697,0.745,1.367,1.022,2.097l1.907,5.035
			c0.817,2.156-1.032,4.377-3.299,3.964l-0.867-0.157c-5.188-0.944-9.824-3.667-13.311-7.577c-2.663,0.627-5.316,1.259-7.958,1.895
			c-0.094,0.022-0.186,0.045-0.28,0.068l0.351,55.088l43.328-2.107l-0.337-52.825c-0.41-0.145-0.856-0.224-1.255-0.384
			C865.048,475.399,860.826,473.195,857.102,470.388z"/>
		<path fill="#8791A4" d="M827.714,560.966l0.52,81.608c0.006,0.821-0.054,1.634-0.058,2.454
			c-0.367,65.56-32.054,127.471-85.198,166.006L602.445,912.942L460.623,812.836c-45.439-32.072-75.647-81.134-84.574-135.233
			c-1.742-10.553-2.755-21.278-2.824-32.127l-0.394-61.84c-0.675-0.019-1.349-0.183-1.912-0.704l-0.647-0.599
			c-3.224-2.984-5.523-6.791-6.689-10.967c-0.371,0.079-0.741,0.157-1.113,0.236c-7.437,1.586-15.035,3.242-22.753,4.953
			c-0.595,0.132-1.189,0.264-1.786,0.396c-2.781,0.618-5.59,1.249-8.399,1.881l0.113,0.704c0.424,2.646,0.351,5.339-0.131,7.972
			l0.371,58.245c0.513,80.418,40.044,156.116,105.746,202.491l167.154,117.985l165.635-120.107
			c65.105-47.208,103.667-123.403,103.155-203.823l-0.568-89.072L827.714,560.966z"/>
		<path fill="#8791A4" d="M372.478,528.299l-1.425-223.44c-0.088-13.788,11.058-25.076,24.846-25.164l405-2.582
			c13.788-0.088,25.076,11.057,25.164,24.845l0.9,141.227l19.333-2.217c0.767-2.646,3.961-10.784,14.991-13.47
			c3.028-0.738,6.016-0.783,8.914-0.413l-0.8-125.402c-0.24-37.684-31.096-68.15-68.781-67.909l-405,2.582
			c-37.684,0.24-68.149,31.096-67.908,68.781l1.509,236.61L372.478,528.299z"/>
		<path fill="#ECEDF0" d="M505.624,308.387c-57.444,0.367-103.715,47.23-103.349,104.675c0.246,38.467,21.396,71.841,52.557,89.638
			l53.837-16.735c-0.642,0.021-1.267,0.104-1.913,0.108c-40.689,0.259-73.885-32.515-74.145-73.205
			c-0.259-40.689,32.516-73.885,73.205-74.144s73.885,32.515,74.145,73.205c0.023,3.59-0.298,7.094-0.773,10.55
			c8.843,5.725,18.144,11.966,27.149,18.142c2.589-9.19,4.024-18.861,3.96-28.886C609.933,354.291,563.068,308.02,505.624,308.387z"
			/>
		<path fill="#FFFFFF" d="M505.818,338.724c-40.689,0.259-73.465,33.455-73.205,74.144c0.259,40.69,33.456,73.465,74.145,73.205
			c0.646-0.004,1.271-0.088,1.913-0.108l2.022-0.629c-7.832-10.277-24.721-35.363-21.627-57.206
			c4-28.243,29.058-32.06,48.415-28.527c6.72,1.227,23.153,10.861,41.71,22.876c0.474-3.456,0.796-6.96,0.773-10.55
			C579.703,371.239,546.507,338.464,505.818,338.724z"/>
		<path fill="#4A5B7B" d="M1148.302,415.708l-3.546-1.474c-9.266-3.851-19.362-5.271-29.33-4.128l-224.911,25.792
			c-5.172-3.46-12.383-7.801-20.312-8.813c-2.898-0.37-5.886-0.325-8.914,0.413c-11.031,2.687-14.224,10.824-14.991,13.47
			l-19.333,2.217l-84.878,9.733c-5.129-2.064-18.821-6.164-31.359,1.833l2.318-132.318c0.013-0.711-0.112-1.395-0.349-2.026
			c-0.71-1.892-2.436-3.307-4.556-3.536c-0.901-0.097-1.794-0.132-2.679-0.12c-0.074,0.001-0.146,0.006-0.22,0.008
			c-0.001,0-0.001,0-0.001,0c-0.326,0.007-0.644,0.049-0.967,0.07c-0.384,0.022-0.764,0.042-1.144,0.082
			c-0.138,0.015-0.28,0.013-0.417,0.031c-0.001,0.015-0.002,0.031-0.003,0.047c-9.949,1.262-18.27,8.806-20.05,19.095
			l-21.823,126.152l-20.338,2.332c-9.147-6.54-21.321-15.145-34.156-23.947c-9.005-6.176-18.305-12.417-27.149-18.142
			c-18.557-12.015-34.99-21.649-41.71-22.876c-19.357-3.534-44.415,0.284-48.415,28.527c-3.094,21.843,13.795,46.929,21.627,57.206
			l-2.022,0.629L454.833,502.7l-45.368,14.103c-5.423-2.685-11.642-3.803-17.563-1.659c-6.794,2.46-10.929,7.664-13.064,11.179
			l-6.36,1.977l-43.256,13.446l-41.975,13.047c-4.547-4.482-10.273-7.215-16.542-7.175c-10.847,0.07-20.103,8.221-24.051,19.794
			L60.856,625.166c-6.983,2.171-11.202,8.801-10.787,15.715c-0.021,0.008-0.047,0.017-0.069,0.025
			c0.017,0.271,0.079,0.542,0.11,0.814c0.037,0.315,0.072,0.627,0.128,0.942c0.163,0.931,0.385,1.86,0.732,2.779
			c0.613,1.62,2.351,2.511,4.024,2.06c7.942-2.143,31.414-8.448,63.644-16.853c0.065-0.017,0.129-0.034,0.195-0.052
			c6.341-1.653,13.022-3.388,19.987-5.188c0.161-0.042,0.321-0.083,0.483-0.125c6.825-1.763,13.93-3.59,21.252-5.463
			c0.373-0.095,0.741-0.189,1.115-0.285c7.471-1.91,15.167-3.867,23.047-5.858c0.059-0.015,0.118-0.029,0.176-0.045
			c3.886-0.981,7.819-1.972,11.785-2.968c0.337-0.084,0.675-0.169,1.012-0.253c7.812-1.961,15.766-3.943,23.817-5.936
			c0.537-0.133,1.075-0.266,1.613-0.398c0.292-0.072,0.588-0.145,0.88-0.217c1.196,4.032,3.424,7.714,6.554,10.612l0.647,0.598
			c1.691,1.566,4.444,0.685,4.912-1.571l1.095-5.272c0.525-2.528,0.569-5.12,0.253-7.678c3.226-0.79,6.459-1.581,9.704-2.37
			c0.573-0.139,1.147-0.279,1.721-0.418c0.04-0.01,0.079-0.019,0.12-0.029c4.745,8.862,12.863,14.739,22.111,14.681
			c12.716-0.081,23.253-11.266,25.604-26.055c0.903-0.211,1.81-0.425,2.713-0.636c0.435-0.101,0.871-0.203,1.305-0.304
			c3.991-0.928,7.968-1.847,11.929-2.756c0.518-0.119,1.034-0.237,1.552-0.355c0.543-0.125,1.08-0.246,1.623-0.369
			c1.014,4.719,3.375,9.061,6.953,12.373l0.647,0.597c1.691,1.566,4.444,0.685,4.912-1.571l1.095-5.272
			c0.038-0.183,0.03-0.371,0.063-0.555c0.482-2.634,0.556-5.326,0.131-7.972l-0.113-0.704c2.809-0.632,5.618-1.262,8.399-1.881
			c0.597-0.132,1.191-0.264,1.786-0.396c7.719-1.711,15.316-3.366,22.753-4.953c0.371-0.079,0.742-0.158,1.113-0.236
			c1.166,4.176,3.464,7.983,6.689,10.967l0.647,0.599c0.563,0.521,1.237,0.685,1.912,0.704c1.353,0.037,2.688-0.771,3-2.276
			l1.095-5.272c0.518-2.495,0.56-5.049,0.26-7.575c2.907-0.602,5.793-1.194,8.636-1.769c1.861-0.377,3.715-0.75,5.546-1.115
			c4.665,4.338,11.686,7.975,21.095,5.121c6.211-1.883,10.178-6.137,12.418-11.397c4.855-0.839,9.504-1.602,13.961-2.295
			c1.24,3.781,3.355,7.244,6.319,9.987l0.647,0.598c1.691,1.566,4.444,0.685,4.912-1.571l1.095-5.272
			c0.388-1.869,0.461-3.772,0.39-5.672c7.271-0.955,13.785-1.64,19.368-1.998c23.824-1.53,43.316-2.262,59.179-2.523
			c0.716-0.012,1.452-0.026,2.153-0.036c2.155-0.03,4.227-0.05,6.243-0.063c0.755-0.005,1.488-0.007,2.224-0.01
			c1.559-0.006,3.078-0.006,4.553-0.003c0.558,0.002,1.138,0.001,1.684,0.003c1.39,0.007,2.694,0.022,4.007,0.037
			c11.165,11.314,25.974,23.165,40.441,25.272l-98.24,40.479c-9.612,3.962-15.048,14.199-12.945,24.381
			c0.661,3.2,3.905,5.16,7.045,4.257L631.587,603.6l25.411-7.309c15.323,3.231,31.546,4.98,45.451,5.906
			c0.006,0,0.012,0.001,0.017,0.001c0.27,0.017,0.524,0.031,0.793,0.049c1.808,0.117,3.564,0.218,5.283,0.309
			c0.572,0.031,1.137,0.061,1.698,0.089c1.773,0.088,3.495,0.164,5.147,0.227c0.538,0.021,1.039,0.037,1.563,0.055
			c1.299,0.046,2.55,0.085,3.756,0.117c0.453,0.013,0.916,0.027,1.356,0.038c1.436,0.035,2.779,0.06,4.057,0.079
			c0.479,0.008,0.922,0.013,1.376,0.019c1.083,0.014,2.105,0.024,3.044,0.028c0.141,0.001,0.321,0.003,0.458,0.004
			c4.073,0.017,7.372-3.293,7.346-7.367l-0.095-14.933c-0.005-0.84-0.152-1.668-0.441-2.457c-0.133-0.364-0.298-0.817-0.485-1.328
			l0.967-0.173l80.847-14.454l8.578-1.534l43.292-7.739l49.932-8.927c5.141-0.904,5.602-8.79,0.608-10.413l-4.046-1.314
			c-8.752-2.842-17.899-3.937-27.003-3.231l-19.637,0.956l-43.328,2.107l-78.876,3.838l-27.134,1.32
			c-0.657-1.399-1.288-2.698-1.862-3.781c-1.373-2.591-5.109-6.76-10.112-11.698l0.164-9.398c0.89-0.355,1.771-0.712,2.676-1.066
			c0.732-0.287,1.468-0.573,2.21-0.859c3.203,2.836,7.13,4.783,11.396,5.558l0.866,0.158c2.267,0.412,4.117-1.809,3.3-3.964
			l-1.908-5.035c-0.198-0.522-0.497-0.994-0.73-1.499c0.009-0.003,0.017-0.006,0.026-0.01c0.556-0.198,1.1-0.396,1.659-0.593
			c1.809-0.637,3.658-1.269,5.507-1.9c0.479,0.326,0.769,0.519,0.769,0.519s8.653,4.527,19.616,2.362
			c8.17-1.613,9.987-8.984,10.384-12.639c1.451-0.43,2.901-0.859,4.368-1.285c0.71-0.207,1.415-0.414,2.128-0.62
			c0.486-0.14,0.983-0.278,1.472-0.418c3.536,4.281,8.429,7.235,13.912,8.232l0.866,0.157c2.268,0.412,4.117-1.808,3.3-3.964
			l-1.907-5.035c-0.453-1.197-1.036-2.335-1.675-3.439c0.588-0.159,1.163-0.322,1.752-0.481c0.099-0.027,0.2-0.054,0.299-0.08
			c2.856-0.771,5.736-1.536,8.635-2.297c0.618-0.162,1.24-0.323,1.86-0.484c2.429-0.634,4.871-1.264,7.326-1.89
			c0.723-0.184,1.449-0.368,2.174-0.552c2.436-0.617,4.884-1.23,7.344-1.839c0.652-0.162,1.304-0.324,1.959-0.485
			c2.616-0.644,5.247-1.283,7.886-1.92c0.094-0.023,0.186-0.046,0.28-0.068c2.642-0.636,5.295-1.267,7.958-1.895
			c3.487,3.91,8.123,6.634,13.311,7.577l0.867,0.157c2.267,0.412,4.117-1.808,3.299-3.964l-1.907-5.035
			c-0.277-0.73-0.675-1.4-1.022-2.097c2.374-0.538,4.75-1.075,7.134-1.606c3.724,2.807,7.947,5.012,12.166,6.702
			c0.399,0.16,0.846,0.239,1.255,0.384c13.198,4.656,31.322,1.378,36.667-8.116c1.575-2.797,1.682-6.182,0.896-9.695
			c3.98-0.791,7.956-1.57,11.928-2.341c3.527,4.197,8.362,7.102,13.779,8.087l0.867,0.157c2.267,0.412,4.117-1.808,3.3-3.964
			l-1.908-5.035c-0.28-0.738-0.681-1.415-1.031-2.119c94.83-17.89,183.209-29.722,212.583-33.478
			C1150.396,420.612,1150.902,416.787,1148.302,415.708z"/>
		<g>
			<path fill="#D8DBE1" d="M409.465,516.802l8.514-2.646h-17.717C403.444,514.438,406.57,515.369,409.465,516.802z"/>
		</g>
		<path fill="#4A5B7B" d="M705.496,316.751c-0.012,0-0.024,0.001-0.036,0.001c0.013-0.001,0.025-0.001,0.038-0.001H705.496z"/>
		<path fill="#4A5B7B" d="M704.768,316.778c0.156-0.007,0.314-0.012,0.471-0.017h0.001
			C705.083,316.766,704.925,316.772,704.768,316.778z"/>
	</g>
</g>
</svg>
